<svg width="95" height="50" viewBox="0 0 95 50" fill="none" xmlns="http://www.w3.org/2000/svg">
<path fill-rule="evenodd" clip-rule="evenodd" d="M65.7401 28.0983V28.8499C65.7401 31.084 66.4357 33.162 67.6206 34.8833C68.2101 35.7027 69.1709 36.2392 70.2585 36.2392C70.7655 36.2392 71.2489 36.1213 71.6792 35.912C72.6401 35.4433 73.94 33.7132 74.9156 32.9763C76.6634 31.6588 78.7738 30.7952 81.064 30.5771V30.6331C81.064 31.2727 81.5856 31.7944 82.2252 31.7944C82.8619 31.7944 83.3866 31.2727 83.3866 30.6331V30.58C89.0899 31.1253 93.6761 35.6497 94.3187 41.3235C94.3688 41.7598 94.3894 42.2402 94.3953 42.6735C94.3776 42.6853 94.3659 42.6941 94.3541 42.7089L92.8361 44.2268L91.3153 42.7089C91.2151 42.6116 91.05 42.6116 90.9527 42.7089L89.4348 44.2268L87.9198 42.7089C87.8196 42.6116 87.6545 42.6116 87.5543 42.7089L86.0334 44.2268L84.5154 42.7089C84.4152 42.6116 84.256 42.6116 84.1558 42.7089C84.0586 42.8061 84.0586 42.9682 84.1558 43.0655L85.8536 44.7632C85.9509 44.8605 86.1129 44.8605 86.2132 44.7632L87.7311 43.2423L89.252 44.7632C89.3493 44.8605 89.5114 44.8605 89.6116 44.7632L91.1295 43.2423L92.6505 44.7632C92.7477 44.8605 92.9098 44.8605 93.01 44.7632L94.3895 43.3809V43.7257C94.3895 45.3292 93.0778 46.6408 91.4744 46.6408H79.8349H74.9627C69.0855 46.6408 64.2781 41.8305 64.2781 35.9562V28.1012L65.7401 28.0983Z" fill="#9F7164"/>
<path fill-rule="evenodd" clip-rule="evenodd" d="M81.8243 41.9779C82.5995 41.9779 83.2332 41.3442 83.2332 40.569V39.673C83.2332 38.8978 82.5995 38.2641 81.8243 38.2641C81.0521 38.2641 80.4155 38.8978 80.4155 39.673V40.569C80.4155 41.3471 81.0521 41.9779 81.8243 41.9779Z" fill="black"/>
<path fill-rule="evenodd" clip-rule="evenodd" d="M58 24.3285H61.9614C63.4115 24.3285 64.6347 25.3041 65.012 26.6334C65.3863 25.3041 66.6096 24.3285 68.0627 24.3285H72.0212V25.8906C72.0212 28.3665 69.9991 30.3885 67.5262 30.3885H62.4949C60.0219 30.3885 58 28.3635 58 25.8906V24.3285Z" fill="#F598A4"/>
<path fill-rule="evenodd" clip-rule="evenodd" d="M81.9778 19.5565C81.9365 17.9914 80.9992 16.7063 79.5372 16.3438C78.1755 16.217 77.1085 15.0705 77.1085 13.6792C77.1085 12.1967 78.3081 11 79.7878 11C81.2674 11 82.467 12.1967 82.467 13.6792V30.4798H81.9778C81.9778 26.8397 81.9778 23.1966 81.9778 19.5565Z" fill="#E2D0C7"/>
<path fill-rule="evenodd" clip-rule="evenodd" d="M82.4699 26.993C82.5082 25.4278 83.4484 24.1427 84.9104 23.7802C86.2721 23.6535 87.3361 22.5069 87.3361 21.1128C87.3361 19.6331 86.1395 18.4365 84.6569 18.4365C83.1773 18.4335 81.9777 19.6331 81.9777 21.1128V30.4828H82.4669C82.4669 29.2566 82.4669 28.0835 82.4699 26.993Z" fill="#E2D0C7"/>
<path fill-rule="evenodd" clip-rule="evenodd" d="M82.2223 29.9817C82.4964 29.9817 82.7175 30.2057 82.7175 30.4798C82.7175 30.7539 82.4964 30.975 82.2223 30.975C81.9482 30.975 81.7242 30.7539 81.7242 30.4798C81.7242 30.2057 81.9482 29.9817 82.2223 29.9817Z" fill="#E2D0C7"/>
<path d="M1.464 22V2.56H9.456V5.008H5.016V10.672H8.64V13.144H5.016V22H1.464ZM16.7061 22.264C15.2661 22.264 14.1461 22 13.3461 21.472C12.5461 20.944 11.9941 20.192 11.6901 19.216C11.3861 18.24 11.2341 17.072 11.2341 15.712V2.56H14.6901V16.12C14.6901 16.728 14.7301 17.304 14.8101 17.848C14.8901 18.376 15.0741 18.808 15.3621 19.144C15.6661 19.464 16.1141 19.624 16.7061 19.624C17.3301 19.624 17.7781 19.464 18.0501 19.144C18.3381 18.808 18.5221 18.376 18.6021 17.848C18.6981 17.304 18.7461 16.728 18.7461 16.12V2.56H22.1781V15.712C22.1781 17.072 22.0261 18.24 21.7221 19.216C21.4181 20.192 20.8661 20.944 20.0661 21.472C19.2821 22 18.1621 22.264 16.7061 22.264ZM26.9158 22V5.176H23.8198V2.56H33.5158V5.176H30.4678V22H26.9158ZM40.6123 22.264C39.1723 22.264 38.0523 22 37.2523 21.472C36.4523 20.944 35.9003 20.192 35.5963 19.216C35.2923 18.24 35.1403 17.072 35.1403 15.712V2.56H38.5963V16.12C38.5963 16.728 38.6363 17.304 38.7163 17.848C38.7963 18.376 38.9803 18.808 39.2683 19.144C39.5723 19.464 40.0203 19.624 40.6123 19.624C41.2363 19.624 41.6843 19.464 41.9563 19.144C42.2443 18.808 42.4283 18.376 42.5083 17.848C42.6043 17.304 42.6523 16.728 42.6523 16.12V2.56H46.0843V15.712C46.0843 17.072 45.9323 18.24 45.6283 19.216C45.3243 20.192 44.7723 20.944 43.9723 21.472C43.1883 22 42.0683 22.264 40.6123 22.264ZM48.8781 22V2.56H53.5341C54.8461 2.56 55.9501 2.72 56.8461 3.04C57.7581 3.344 58.4461 3.872 58.9101 4.624C59.3901 5.376 59.6301 6.4 59.6301 7.696C59.6301 8.48 59.5581 9.184 59.4141 9.808C59.2701 10.432 59.0221 10.968 58.6701 11.416C58.3341 11.848 57.8621 12.184 57.2541 12.424L59.9661 22H56.4141L54.0621 13.096H52.4301V22H48.8781ZM52.4301 10.864H53.5341C54.2221 10.864 54.7661 10.768 55.1661 10.576C55.5821 10.368 55.8781 10.048 56.0541 9.616C56.2301 9.168 56.3181 8.6 56.3181 7.912C56.3181 6.936 56.1341 6.208 55.7661 5.728C55.4141 5.232 54.7341 4.984 53.7261 4.984H52.4301V10.864ZM62.3312 22V2.56H70.4912V5.056H65.8832V10.648H69.5072V13.12H65.8832V19.552H70.5392V22H62.3312Z" fill="#F598A4"/>
<path d="M4.032 39.984V36.096H0.624V33.984H4.032V30.168H6.288V33.984H9.768V36.096H6.288V39.984H4.032ZM16.6954 45.264C15.4154 45.264 14.3994 44.992 13.6474 44.448C12.8954 43.904 12.3514 43.136 12.0154 42.144C11.6954 41.136 11.5354 39.952 11.5354 38.592V32.064C11.5354 30.672 11.6954 29.472 12.0154 28.464C12.3354 27.456 12.8954 26.688 13.6954 26.16C14.5114 25.616 15.6314 25.344 17.0554 25.344C18.3834 25.344 19.4394 25.568 20.2234 26.016C21.0074 26.464 21.5674 27.112 21.9034 27.96C22.2554 28.792 22.4314 29.808 22.4314 31.008V32.016H19.0474V30.912C19.0474 30.288 18.9994 29.752 18.9034 29.304C18.8234 28.856 18.6474 28.52 18.3754 28.296C18.1194 28.056 17.6954 27.936 17.1034 27.936C16.4794 27.936 16.0234 28.088 15.7354 28.392C15.4634 28.696 15.2874 29.096 15.2074 29.592C15.1434 30.088 15.1114 30.632 15.1114 31.224V39.36C15.1114 40.032 15.1674 40.616 15.2794 41.112C15.3914 41.608 15.5994 41.992 15.9034 42.264C16.2074 42.52 16.6394 42.648 17.1994 42.648C17.7754 42.648 18.2154 42.504 18.5194 42.216C18.8234 41.928 19.0314 41.528 19.1434 41.016C19.2714 40.504 19.3354 39.896 19.3354 39.192V37.368H17.2474V35.136H22.5274V45H20.2474L19.9834 43.08C19.7274 43.72 19.3354 44.248 18.8074 44.664C18.2954 45.064 17.5914 45.264 16.6954 45.264ZM25.2296 45V25.56H33.3896V28.056H28.7816V33.648H32.4056V36.12H28.7816V42.552H33.4376V45H25.2296ZM34.5113 45L38.3993 25.56H42.1913L46.0793 45H42.7913L42.0233 40.512H38.6393L37.8473 45H34.5113ZM38.9993 38.256H41.6393L40.3193 30.096L38.9993 38.256ZM48.0343 45V25.56H52.6903C54.0023 25.56 55.1063 25.72 56.0023 26.04C56.9143 26.344 57.6023 26.872 58.0663 27.624C58.5463 28.376 58.7863 29.4 58.7863 30.696C58.7863 31.48 58.7143 32.184 58.5703 32.808C58.4263 33.432 58.1783 33.968 57.8263 34.416C57.4903 34.848 57.0183 35.184 56.4103 35.424L59.1223 45H55.5703L53.2183 36.096H51.5863V45H48.0343ZM51.5863 33.864H52.6903C53.3783 33.864 53.9223 33.768 54.3223 33.576C54.7383 33.368 55.0343 33.048 55.2103 32.616C55.3863 32.168 55.4743 31.6 55.4743 30.912C55.4743 29.936 55.2903 29.208 54.9223 28.728C54.5703 28.232 53.8903 27.984 52.8823 27.984H51.5863V33.864Z" fill="#F598A4"/>
</svg>
